<svg id="Layer_1" data-name="Layer 1" xmlns="http://www.w3.org/2000/svg" viewBox="0 0 721.93 427.58"><defs><style>.cls-1,.cls-11,.cls-2,.cls-3{fill:none;stroke-linecap:round;}.cls-1,.cls-2{stroke:#000;}.cls-1,.cls-2,.cls-3{stroke-miterlimit:10;}.cls-1{stroke-width:4px;}.cls-2{stroke-width:2px;}.cls-3{stroke:#1f161e;}.cls-4{fill:#fbdc8e;}.cls-5{fill:#969696;}.cls-6{fill:#ab8de5;}.cls-7{fill:#78e5e1;}.cls-8{fill:#d8d8d8;}.cls-9{fill:#64ccc4;}.cls-10,.cls-12{fill:#fff;}.cls-11{stroke:#969696;stroke-linejoin:round;stroke-width:0.82px;}.cls-12{isolation:isolate;font-size:7.18px;font-family:Arial-BoldMT, Arial;font-weight:700;}.cls-13{fill:#1f161e;}.cls-14{fill:#55b79d;}.cls-15{fill:#f8cdba;}.cls-16{fill:#fa9e9f;}</style></defs><title>header</title><g id="Layer_2" data-name="Layer 2"><g id="Layer_2-2" data-name="Layer 2-2"><ellipse cx="502.84" cy="311.54" rx="63.11" ry="13.72"/><line class="cls-1" x1="502.84" y1="311.54" x2="538.29" y2="420.68"/><line class="cls-1" x1="502.84" y1="311.54" x2="467.39" y2="420.68"/><line class="cls-2" x1="526.65" y1="384.85" x2="487.13" y2="359.92"/><line class="cls-2" x1="518.71" y1="359.92" x2="479.18" y2="384.85"/><path class="cls-3" d="M461.22,353.18c.16,4.84.09,21.79.9,29" transform="translate(-20.49 -159.77)"/><path class="cls-4" d="M246,338.57h-6a2.38,2.38,0,0,1-2.38-2.35V300a2.28,2.28,0,0,1,.7-1.65l7.58-7.46a2.4,2.4,0,0,1,1.68-.69H270a2.36,2.36,0,0,1,2.38,2.34V296" transform="translate(-20.49 -159.77)"/><path d="M56.64,421.14C37.64,424.68,41,536.23,77.5,529.48,111.94,523.05,79.82,416.8,56.64,421.14Z" transform="translate(-20.49 -159.77)"/><path class="cls-4" d="M140.06,434.91c-15.12-8.42-78.41,69.92-49.46,86C118,536.23,158.47,445.18,140.06,434.91Z" transform="translate(-20.49 -159.77)"/><path class="cls-5" d="M63,583.37h38.18a6.23,6.23,0,0,0,6.21-5.47l4.82-42.58a6.19,6.19,0,0,0-5.48-6.84,6,6,0,0,0-.73,0H58.39a6.2,6.2,0,0,0-6.25,6.15,4.63,4.63,0,0,0,0,.65l4.61,42.58A6.23,6.23,0,0,0,63,583.37Z" transform="translate(-20.49 -159.77)"/><path class="cls-6" d="M45.91,377.7c-14.47,4.14-3.38,90.23,24.33,82.31C96.4,452.53,63.52,372.67,45.91,377.7Z" transform="translate(-20.49 -159.77)"/><path class="cls-4" d="M22.05,446.21c-10,8.47,30.68,73.34,49.9,57.05C90.1,487.94,34.26,435.9,22.05,446.21Z" transform="translate(-20.49 -159.77)"/><path class="cls-7" d="M82,386.66c-21.66,0-41.49,136,0,136C121.18,522.69,108.37,386.66,82,386.66Z" transform="translate(-20.49 -159.77)"/><path class="cls-8" d="M120.19,519.23H44a4,4,0,0,0-4.05,4v7.26a4,4,0,0,0,4.05,4h76.2a4,4,0,0,0,4-4v-7.26A4,4,0,0,0,120.19,519.23Z" transform="translate(-20.49 -159.77)"/><path class="cls-8" d="M256.07,296h22a2.66,2.66,0,0,1,2.68,2.64h0v43.08a2.67,2.67,0,0,1-2.68,2.65H248.68a2.67,2.67,0,0,1-2.68-2.65v-35.8a2.64,2.64,0,0,1,.78-1.87l7.4-7.28A2.78,2.78,0,0,1,256.07,296Z" transform="translate(-20.49 -159.77)"/><path class="cls-5" d="M246,304.89h7.47a1.49,1.49,0,0,0,1.5-1.48V296" transform="translate(-20.49 -159.77)"/><path class="cls-9" d="M237.58,299.05h7.47a1.49,1.49,0,0,0,1.51-1.48v-7.42" transform="translate(-20.49 -159.77)"/><path class="cls-7" d="M332.28,246.74H280.72a3,3,0,0,0-3,3v16.57a3,3,0,0,0,3,3h51.56a3,3,0,0,0,3-3V249.72A3,3,0,0,0,332.28,246.74Z" transform="translate(-20.49 -159.77)"/><polygon class="cls-7" points="286.02 124.94 279.08 104.26 292.96 104.26 286.02 124.94"/><polygon class="cls-10" points="299.77 92.97 305.6 102.87 293.96 102.87 299.77 92.97"/><polygon class="cls-10" points="272.26 102.87 266.44 92.97 278.08 92.97 272.26 102.87"/><ellipse class="cls-10" cx="286.03" cy="97.93" rx="4.37" ry="4.3"/><path class="cls-8" d="M344.84,199H311a2.63,2.63,0,0,0-2.65,2.6v20.13a2.63,2.63,0,0,0,2.65,2.6h33.84a2.62,2.62,0,0,0,2.65-2.6V201.61A2.62,2.62,0,0,0,344.84,199Z" transform="translate(-20.49 -159.77)"/><line class="cls-11" x1="325.78" y1="40.03" x2="307.44" y2="51.9"/><line class="cls-11" x1="287.86" y1="39.23" x2="307.44" y2="51.9"/><ellipse class="cls-4" cx="287.86" cy="39.23" rx="5.6" ry="5.51"/><text class="cls-12" transform="matrix(-1.02, 0, 0, 1, 289.48, 41.36)">1</text><path class="cls-8" d="M741.19,225.81h-146A1.22,1.22,0,0,0,594,227v.75a1.22,1.22,0,0,0,1.23,1.21h146a1.22,1.22,0,0,0,1.23-1.21V227A1.22,1.22,0,0,0,741.19,225.81Z" transform="translate(-20.49 -159.77)"/><path class="cls-5" d="M689.09,159.77h-8.87a2.54,2.54,0,0,0-2.56,2.52v57.86a2.54,2.54,0,0,0,2.56,2.52h8.87a2.54,2.54,0,0,0,2.56-2.52V162.29A2.54,2.54,0,0,0,689.09,159.77Z" transform="translate(-20.49 -159.77)"/><path class="cls-8" d="M675.53,174.52h-2.74a2.11,2.11,0,0,0-2.13,2.09v44a2.11,2.11,0,0,0,2.13,2.1h2.74a2.11,2.11,0,0,0,2.13-2.1v-44A2.11,2.11,0,0,0,675.53,174.52Z" transform="translate(-20.49 -159.77)"/><path class="cls-5" d="M668.6,174.52h-2.88a2,2,0,0,0-2.06,2v44.09a2,2,0,0,0,2.06,2h2.88a2,2,0,0,0,2.06-2V176.55A2,2,0,0,0,668.6,174.52Z" transform="translate(-20.49 -159.77)"/><path class="cls-8" d="M663,179,660.64,178a2.2,2.2,0,0,0-2.91,1.06l-18.59,39.82a2.14,2.14,0,0,0,1.08,2.87l2.36,1.07a2.22,2.22,0,0,0,2.92-1.06l18.59-39.83A2.16,2.16,0,0,0,663,179Z" transform="translate(-20.49 -159.77)"/><ellipse class="cls-8" cx="664.17" cy="43.13" rx="3.91" ry="3.85"/><path class="cls-8" d="M688.2,209.05h-7.08a.94.94,0,0,0-.94.93h0a.93.93,0,0,0,.94.92h7.08a.93.93,0,0,0,.94-.92h0A.94.94,0,0,0,688.2,209.05Z" transform="translate(-20.49 -159.77)"/><path class="cls-8" d="M688.2,213.79h-7.08a.93.93,0,0,0-.94.92h0a.94.94,0,0,0,.94.93h7.08a.94.94,0,0,0,.94-.93h0A.93.93,0,0,0,688.2,213.79Z" transform="translate(-20.49 -159.77)"/><path class="cls-5" d="M275.88,300.44H268.8a.93.93,0,0,0-.94.92h0a.94.94,0,0,0,.94.93h7.08a.94.94,0,0,0,.94-.93h0A.93.93,0,0,0,275.88,300.44Z" transform="translate(-20.49 -159.77)"/><path class="cls-5" d="M275.88,304.89H268.8a.93.93,0,0,0-.94.92h0a.93.93,0,0,0,.94.92h7.08a.93.93,0,0,0,.94-.92h0A.93.93,0,0,0,275.88,304.89Z" transform="translate(-20.49 -159.77)"/><path class="cls-5" d="M276.29,312.49H250.44a.93.93,0,0,0-.94.92h0a.94.94,0,0,0,.94.93h25.85a.94.94,0,0,0,.94-.93h0A.93.93,0,0,0,276.29,312.49Z" transform="translate(-20.49 -159.77)"/><path class="cls-5" d="M276.29,316.86H250.44a.93.93,0,0,0-.94.92h0a.94.94,0,0,0,.94.93h25.85a.94.94,0,0,0,.94-.93h0A.93.93,0,0,0,276.29,316.86Z" transform="translate(-20.49 -159.77)"/><path class="cls-5" d="M276.29,321.22H250.44a.94.94,0,0,0-.94.93h0a.93.93,0,0,0,.94.92h25.85a.93.93,0,0,0,.94-.92h0A.94.94,0,0,0,276.29,321.22Z" transform="translate(-20.49 -159.77)"/><path class="cls-5" d="M674.16,181.07h0a.73.73,0,0,0-.73.72v33.6a.73.73,0,0,0,.73.72h0a.73.73,0,0,0,.73-.72v-33.6A.73.73,0,0,0,674.16,181.07Z" transform="translate(-20.49 -159.77)"/><path class="cls-8" d="M710.4,224.25h-6.26a2.47,2.47,0,0,0-2.49,2.45h0a2.47,2.47,0,0,0,2.49,2.45h6.26a2.48,2.48,0,0,0,2.49-2.45h0A2.48,2.48,0,0,0,710.4,224.25Z" transform="translate(-20.49 -159.77)"/><path class="cls-8" d="M633.64,224.25h-6.26a2.47,2.47,0,0,0-2.49,2.45h0a2.47,2.47,0,0,0,2.49,2.45h6.26a2.48,2.48,0,0,0,2.49-2.45h0A2.48,2.48,0,0,0,633.64,224.25Z" transform="translate(-20.49 -159.77)"/><path class="cls-8" d="M416.22,220.83H379.71a11.91,11.91,0,0,0-12,11.81v17.52a11.91,11.91,0,0,0,12,11.8h36.51a11.91,11.91,0,0,0,12-11.8V232.64A11.91,11.91,0,0,0,416.22,220.83Z" transform="translate(-20.49 -159.77)"/><rect class="cls-6" x="386.12" y="67.68" width="9.1" height="27.89"/><rect class="cls-6" x="372.93" y="86.23" width="9.1" height="9.34"/><rect class="cls-6" x="359.75" y="78.36" width="9.1" height="17.2"/><path class="cls-13" d="M370.17,567.44c0,2.33,1.39,17-1.38,18.4s-33.22,2.18-34.6.81-2.21-4.22-1-5,13-3.13,14.6-4.22,3.81-6.89,3-10" transform="translate(-20.49 -159.77)"/><path class="cls-7" d="M461.22,375.21l-17.14-6c.74-30.76,8.05-99.49,18.43-109.71,2.44-2.39,50.7-6.56,59.31-6.56,51.38,0,66.62,5.76,70.49,9.58,12,11.8,15.74,66.5,15.74,85.65s-55,29.08-55,29.08l-64.47,4.36s-14.14,1.44-26.37,2.15C461.94,380,461.22,375.21,461.22,375.21Z" transform="translate(-20.49 -159.77)"/><path class="cls-13" d="M410.14,393c-4.69-1.37-51.33-8.85-61.49,1s-42.14,150.87-42.14,154.11h25.75L367,474.55" transform="translate(-20.49 -159.77)"/><path class="cls-14" d="M580,380.5c1.17,5.75,8.2,11.93,8.2,43.28,0,43.35-36.1,44.26-49.06,44.26-40.38,0-105.71-11.8-110.12-14-2.93,4.82-56.87,113.12-57.12,115.53H347s15.39-162,43.16-180.4C399.21,383.31,559.25,377,580,380.5Z" transform="translate(-20.49 -159.77)"/><path class="cls-15" d="M434.56,348.81c6.52,0,11.9,1.52,26.66,4.37L462,381c-14-5.55-17.25-13.26-21.31-13.26-10.14,0-15.44,5.15-21.43,5.15-4.18,0-11.71-3.23-11.71-7.62C407.54,356.05,426.48,348.81,434.56,348.81Z" transform="translate(-20.49 -159.77)"/><path class="cls-13" d="M330.8,546.18c0,2.35,1.39,17-1.38,18.41s-33.22,2.17-34.6.81-2.21-4.21-1-5,13-3.14,14.6-4.23,3.81-6.89,3-10" transform="translate(-20.49 -159.77)"/><path class="cls-15" d="M512.73,259.43c0,3.71,21.89,3.82,21.89,0V229.27H512.73Z" transform="translate(-20.49 -159.77)"/><path class="cls-13" d="M519.86,239.22c2,0,14.76,5.54,14.76,8.64V231.5C531.44,231.5,519.86,239.22,519.86,239.22Z" transform="translate(-20.49 -159.77)"/><ellipse class="cls-15" cx="495.14" cy="54.66" rx="26.5" ry="26.07"/><path class="cls-13" d="M488.28,194c3.28,5.12,10.14,7.48,17.57,7.48,6.33,0,15.55-1.81,22.11,1.86,3.55,2,7.62,6.45,8.44,15.41,0,1.53,1.77,7.48,1.77,9.4,0,1.31,1.5,2.17,4,2.17,1.29,0,3.84-2.06,3.84-5.2,0-3.63-1.47-4.92-1.47-8s3.83-6,3.83-14.59c0-12.33-8-19.92-13.66-19.92-5.16,0-6.78,1.18-7.43,1.68,0-11.2-15-16.32-20.95-16.32-6.8,0-10,2.75-10,6.24,0,5.57,2.7,10.3,4.07,11.36a17,17,0,0,0-11.3-4.24c-7.79,0-10.41,5-10.41,8.48,0,7.48,9.13,14.42,12.53,14.42a34.52,34.52,0,0,1,3-5.11" transform="translate(-20.49 -159.77)"/><ellipse class="cls-15" cx="515.09" cy="58.1" rx="5.65" ry="5.56"/><ellipse class="cls-16" cx="468.38" cy="57.19" rx="4.38" ry="2.24"/><ellipse class="cls-16" cx="495.93" cy="57.19" rx="4.38" ry="2.24"/><path class="cls-3" d="M499.57,212.31c-.82,1.16-5,6-.59,7.94" transform="translate(-20.49 -159.77)"/><path class="cls-3" d="M507.81,225.89c1.32,0,3.35-1.61,4.42-3.06" transform="translate(-20.49 -159.77)"/><path class="cls-3" d="M472.87,295.9c-2,4.18-11.65,44.51-11.65,57.28" transform="translate(-20.49 -159.77)"/><path class="cls-15" d="M608.05,344.87c0,45.34-.43,58.49-18.93,58.49-42.64,0-107.1-34.43-118.59-34.43-10.15,0-15.45,5.16-21.44,5.16-4.17,0-11.69-3.24-11.69-7.62,0-9.2,18.93-16.43,27-16.43,18.17,0,90.68,17.23,92.45,17.23s4.75-.76,4.75-3.69c0-5.32-3.54-17.62-4-18.69Z" transform="translate(-20.49 -159.77)"/><path class="cls-3" d="M547,305.33c1.22,3.45,10.73,39.13,11.83,43.48" transform="translate(-20.49 -159.77)"/><path class="cls-5" d="M179.65,584.87h0a5.13,5.13,0,0,0,6.26-3.59L237.1,389.72a5,5,0,0,0-3.65-6.15h0a5.13,5.13,0,0,0-6.25,3.59L176,578.72A5,5,0,0,0,179.65,584.87Z" transform="translate(-20.49 -159.77)"/><path class="cls-5" d="M241.26,383.58h0a5,5,0,0,0-3.65,6.15l51.2,191.56a5.14,5.14,0,0,0,6.26,3.59h0a5,5,0,0,0,3.65-6.16l-51.2-191.55A5.13,5.13,0,0,0,241.26,383.58Z" transform="translate(-20.49 -159.77)"/><path class="cls-8" d="M311.91,383.58h0a5,5,0,0,0-3.65,6.15l51.2,191.55a5.13,5.13,0,0,0,6.25,3.59h0a5,5,0,0,0,3.65-6.15L318.17,387.17A5.13,5.13,0,0,0,311.91,383.58Z" transform="translate(-20.49 -159.77)"/><path class="cls-8" d="M251.2,581.37h0a5.13,5.13,0,0,0,6.24-3.63l50.35-192.12a5.06,5.06,0,0,0-3.69-6.15h0a5.15,5.15,0,0,0-6.25,3.63L247.51,575.22A5.06,5.06,0,0,0,251.2,581.37Z" transform="translate(-20.49 -159.77)"/><path class="cls-5" d="M600.33,383.58h0a5,5,0,0,0-3.65,6.15l51.2,191.56a5.13,5.13,0,0,0,6.26,3.59h0a5,5,0,0,0,3.65-6.15l-51.2-191.56A5.13,5.13,0,0,0,600.33,383.58Z" transform="translate(-20.49 -159.77)"/><path class="cls-5" d="M539.59,584.88h0a5.13,5.13,0,0,0,6.26-3.59l51.2-191.56a5,5,0,0,0-3.65-6.15h0a5.13,5.13,0,0,0-6.26,3.59l-51.2,191.56A5,5,0,0,0,539.59,584.88Z" transform="translate(-20.49 -159.77)"/><path class="cls-8" d="M701.27,374.11H206.09a4.5,4.5,0,0,0-4.53,4.46v6a4.5,4.5,0,0,0,4.53,4.46H701.27a4.5,4.5,0,0,0,4.53-4.46v-6A4.5,4.5,0,0,0,701.27,374.11Z" transform="translate(-20.49 -159.77)"/><path class="cls-8" d="M673.51,383.58h0a5,5,0,0,0-3.65,6.15l51.2,191.56a5.13,5.13,0,0,0,6.25,3.59h0a5,5,0,0,0,3.65-6.15l-51.2-191.56A5.13,5.13,0,0,0,673.51,383.58Z" transform="translate(-20.49 -159.77)"/><path class="cls-8" d="M612.77,584.88h0a5.13,5.13,0,0,0,6.25-3.59l51.2-191.56a5,5,0,0,0-3.65-6.15h0a5.13,5.13,0,0,0-6.25,3.59l-51.2,191.56A5,5,0,0,0,612.77,584.88Z" transform="translate(-20.49 -159.77)"/><path d="M335.08,374.11H427.6l-16.77-56.69a6.7,6.7,0,0,0-6.48-4.71h-78.5a6.52,6.52,0,0,0-6.48,8.27Z" transform="translate(-20.49 -159.77)"/><ellipse class="cls-10" cx="349.5" cy="183.63" rx="5.66" ry="5.57"/><rect x="396.12" y="210.36" width="64.91" height="3.98"/></g></g></svg>